<?xml version="1.0" encoding="UTF-8"?>
<svg version="1.1" xmlns="http://www.w3.org/2000/svg" width="495" height="495">
<path d="M0 0 C163.35 0 326.7 0 495 0 C495 163.35 495 326.7 495 495 C331.65 495 168.3 495 0 495 C0 331.65 0 168.3 0 0 Z " fill="#050B0E" transform="translate(0,0)"/>
<path d="M0 0 C14.38682577 -0.69613673 24.50612987 5.15867822 35.3125 14.3125 C43.47999858 21.96142724 48.78072348 31.68194405 49.24266052 43.00157166 C49.33081539 47.54388965 49.26271154 52.08297985 49.1875 56.625 C49.17242196 58.21743522 49.15873909 59.8098843 49.14648438 61.40234375 C49.11373449 65.2685767 49.06212661 69.13413209 49 73 C47.27351227 73.00879936 47.27351227 73.00879936 45.512146 73.01777649 C34.62580221 73.07517373 23.73965492 73.14802335 12.85351181 73.23571491 C7.25782482 73.2803012 1.66220867 73.31958291 -3.93359375 73.34643555 C-9.34133239 73.37258599 -14.74879668 73.41307052 -20.15636444 73.46318626 C-22.21181557 73.47977591 -24.26731407 73.49133909 -26.32282257 73.49761391 C-41.88291461 73.54222631 -41.88291461 73.54222631 -57 77 C-58.12535156 77.36480469 -59.25070312 77.72960937 -60.41015625 78.10546875 C-76.13537838 84.52061828 -87.95890257 95.4914735 -95 111 C-100.67131945 125.34510213 -100.8837989 140.35395752 -95.41796875 154.73046875 C-88.93997874 169.66732175 -78.8211409 181.79759164 -64 189 C-54.3257424 192.61632963 -45.12603429 194.13371111 -34.85180664 194.20532227 C-33.96320953 194.21522186 -33.07461243 194.22512146 -32.15908813 194.23532104 C-29.24280395 194.26672871 -26.32650351 194.29161089 -23.41015625 194.31640625 C-21.37991428 194.33699371 -19.34967643 194.35799064 -17.31944275 194.37937927 C-11.99139754 194.43441489 -6.66331485 194.48390538 -1.33520508 194.53222656 C4.10794386 194.58257721 9.55103875 194.6381923 14.99414062 194.69335938 C25.66271418 194.80071436 36.33133479 194.90220912 47 195 C47.05096801 197.53801816 47.08798142 200.07499462 47.1171875 202.61328125 C47.13289795 203.32456177 47.1486084 204.03584229 47.16479492 204.76867676 C47.27259552 217.29151338 40.14088974 227.07680254 32 236 C20.06114226 246.59835442 3.38663854 250.10909078 -12.07495117 250.20532227 C-13.56925706 250.22015467 -13.56925706 250.22015467 -15.09375095 250.23528671 C-18.41013288 250.26692926 -21.72652809 250.29174684 -25.04296875 250.31640625 C-27.40676154 250.33725289 -29.77055139 250.35843457 -32.13433838 250.37992859 C-38.49848319 250.43618241 -44.86266175 250.48576942 -51.22687912 250.53303528 C-55.18251928 250.56246295 -59.13815008 250.59295296 -63.09378052 250.62365723 C-80.45676869 250.75723979 -97.81982856 250.87200259 -115.18301392 250.9766922 C-118.88788361 250.99931538 -122.59274581 251.02290845 -126.29760742 251.04681396 C-139.36737341 251.13029231 -152.43700044 251.19578647 -165.50698853 251.23117065 C-169.43736675 251.24217919 -173.36762173 251.25996569 -177.29794312 251.28372192 C-181.89211681 251.31099474 -186.48609276 251.32334692 -191.08034515 251.32413673 C-192.73467374 251.32673357 -194.38900441 251.33429949 -196.04328156 251.34760094 C-208.95391258 251.44616335 -221.57211487 250.5581085 -233.25 244.4375 C-233.91620361 244.09525391 -234.58240723 243.75300781 -235.26879883 243.40039062 C-241.59379928 239.97559319 -246.44255633 235.5662059 -251 230 C-251.50789063 229.38898438 -252.01578125 228.77796875 -252.5390625 228.1484375 C-260.65065101 216.8519308 -261.74266663 202.44365018 -261.64697266 189.05981445 C-261.65377002 187.43323801 -261.66268489 185.80666928 -261.67352295 184.18011475 C-261.69606619 179.8144293 -261.68758641 175.44934311 -261.67162752 171.08364892 C-261.65884388 166.48667467 -261.67074225 161.88974695 -261.67855835 157.29277039 C-261.68761626 149.58074864 -261.67576613 141.86896751 -261.65185547 134.15698242 C-261.62462258 125.27147313 -261.63348957 116.38653725 -261.6609875 107.50104171 C-261.68375351 99.8342878 -261.68684306 92.16770541 -261.67379415 84.50092858 C-261.66604437 79.93824544 -261.66483417 75.37583098 -261.68147659 70.81316566 C-261.69603301 66.52408914 -261.68569847 62.23574509 -261.65700531 57.94674683 C-261.65045486 56.38318784 -261.65218718 54.81956603 -261.66331863 53.25603294 C-261.76626001 37.31436103 -257.20240368 24.49212566 -246.25 12.8125 C-241.12493394 7.89440776 -235.29105833 3 -228 3 C-227.75765625 3.61746094 -227.5153125 4.23492187 -227.265625 4.87109375 C-225.21877813 10.04331834 -223.07698151 15.14188597 -220.734375 20.1875 C-220 22 -220 22 -220 24 C-219.34 24 -218.68 24 -218 24 C-217.02499387 25.48410743 -216.12324093 27.0163234 -215.25 28.5625 C-202.40819937 49.31313401 -181.50306197 64.34293969 -159 73 C-158.00742188 73.39058594 -157.01484375 73.78117187 -155.9921875 74.18359375 C-126.39172746 85.43836477 -90.101753 82.48354204 -61.51171875 69.90527344 C-33.12018942 56.78494549 -13.78907339 34.78061237 -2 6 C-1.29307353 4.01387326 -0.60077008 2.02077207 0 0 Z " fill="#FDFDFD" transform="translate(352,223)"/>
<path d="M0 0 C2.98559151 1.4319535 5.086058 2.83851098 7.42578125 5.1953125 C8.05419922 5.82501953 8.68261719 6.45472656 9.33007812 7.10351562 C9.98427734 7.77060547 10.63847656 8.43769531 11.3125 9.125 C12.32280273 10.1449707 12.32280273 10.1449707 13.35351562 11.18554688 C17.21738036 15.10949114 20.96692589 19.09062426 24.51953125 23.30078125 C26.69838039 25.80157116 29.07628632 28.08717654 31.44140625 30.41015625 C33.46647991 32.47583289 35.20867292 34.73098569 37 37 C38.65332804 38.67989938 40.32288432 40.34384827 42 42 C55.89650063 55.74007516 55.89650063 55.74007516 59.4375 59.9375 C61.7704215 62.64733673 64.17487163 65.22968535 66.71484375 67.74609375 C67.39554932 68.42357666 68.07625488 69.10105957 68.77758789 69.79907227 C70.16082808 71.16814355 71.54667992 72.53458188 72.93530273 73.89819336 C73.57282471 74.52733643 74.21034668 75.15647949 74.8671875 75.8046875 C75.44581543 76.37171387 76.02444336 76.93874023 76.62060547 77.52294922 C79.33109596 80.42533284 79.27510673 83.08013577 79.21875 86.96875 C78.79400929 90.9127709 76.90386499 93.20911813 74 95.75 C68.72800759 99.04499525 62.52659538 98.44535582 56.50561523 98.56982422 C55.13879656 98.60628993 53.77232574 98.66067004 52.40698242 98.73388672 C44.69801307 99.14016391 39.25251642 99.05453538 33.29296875 93.80078125 C30.23922041 90.57895124 27.32930472 87.26767018 24.875 83.5625 C24.31554687 82.73878906 23.75609375 81.91507812 23.1796875 81.06640625 C22 79 22 79 22 77 C21.34 77 20.68 77 20 77 C20 142.01 20 207.02 20 274 C6.48875562 276.25187406 6.48875562 276.25187406 0.73828125 276.23046875 C-1.09186523 276.22756836 -1.09186523 276.22756836 -2.95898438 276.22460938 C-4.18939453 276.21236328 -5.41980469 276.20011719 -6.6875 276.1875 C-7.96044922 276.18685547 -9.23339844 276.18621094 -10.54492188 276.18554688 C-19.85925752 276.14074248 -19.85925752 276.14074248 -21 275 C-21.0977625 272.4454283 -21.12995146 269.91791539 -21.12025452 267.36289978 C-21.12110894 266.55350199 -21.12196337 265.7441042 -21.12284368 264.9101792 C-21.12450096 262.17699528 -21.11897309 259.44387169 -21.11352539 256.71069336 C-21.11324355 254.75983176 -21.1134012 252.80897006 -21.1139679 250.85810852 C-21.11425598 245.54427841 -21.10835754 240.23047066 -21.10139394 234.91664577 C-21.09516216 229.36993315 -21.09455674 223.82322009 -21.09336853 218.27650452 C-21.09025469 207.76507375 -21.0820406 197.25365334 -21.07201904 186.74222714 C-21.06085953 174.77870865 -21.05534786 162.81518968 -21.05032361 150.85166728 C-21.03985803 126.23443911 -21.02225758 101.61722013 -21 77 C-21.66 77 -22.32 77 -23 77 C-23.24105469 77.7115625 -23.48210937 78.423125 -23.73046875 79.15625 C-25.18907399 82.42352575 -27.01995244 84.75664897 -29.3125 87.5 C-30.07175781 88.4178125 -30.83101562 89.335625 -31.61328125 90.28125 C-32.40089844 91.1784375 -33.18851563 92.075625 -34 93 C-34.71583252 93.86665283 -35.43166504 94.73330566 -36.16918945 95.6262207 C-39.67138091 98.5629872 -42.29913271 98.7431796 -46.6796875 98.69921875 C-47.77617111 98.70995171 -47.77617111 98.70995171 -48.89480591 98.72090149 C-50.43620592 98.72865997 -51.97771628 98.72370529 -53.51904297 98.70678711 C-55.86249193 98.6876024 -58.19996784 98.72690973 -60.54296875 98.77148438 C-73.02246702 98.84110617 -73.02246702 98.84110617 -77.5078125 95.14453125 C-80.12707115 92.35027714 -80.85975142 89.68721804 -81.625 85.9375 C-79.85837735 74.80777732 -63.15754112 63.03305597 -55.37109375 55.2734375 C-53.76947959 53.67369182 -52.16808859 52.07372269 -50.56690979 50.47354126 C-46.38200881 46.2924316 -42.19411196 42.11433558 -38.0055542 37.93688965 C-33.71996533 33.66158822 -29.43725782 29.38340252 -25.15429688 25.10546875 C-16.77232664 16.73417603 -8.38718419 8.36606863 0 0 Z " fill="#FBFBFB" transform="translate(242,12)"/>
<path d="M0 0 C1.704478 -0.01511375 1.704478 -0.01511375 3.44338989 -0.03053284 C7.17199739 -0.05885831 10.9001981 -0.06488096 14.62890625 -0.06811523 C17.2362484 -0.07776439 19.84358894 -0.08785747 22.45092773 -0.09837341 C27.90448635 -0.11749073 33.35793583 -0.12202746 38.81152344 -0.12011719 C45.09321128 -0.1183139 51.3741271 -0.15001074 57.65561962 -0.19734818 C63.72866587 -0.24146366 69.80134421 -0.25207728 75.87454224 -0.25028801 C78.44527344 -0.25381819 81.01601094 -0.26703189 83.5866394 -0.29028511 C87.18601041 -0.31980655 90.78340711 -0.31100836 94.3828125 -0.29296875 C95.43453644 -0.30982727 96.48626038 -0.32668579 97.56985474 -0.34405518 C105.00000053 -0.24981988 110.43935367 1.62248517 116.19140625 6.43579102 C121.45652608 13.45095049 121.91191912 20.40416221 121.78515625 28.94360352 C121.78519653 30.10906708 121.78523682 31.27453064 121.78527832 32.47531128 C121.77994598 34.92426993 121.7624623 37.37322949 121.73339844 39.82202148 C121.69144777 43.55709413 121.69234613 47.29036545 121.69921875 51.02563477 C121.68872788 53.41497013 121.67579034 55.80429627 121.66015625 58.19360352 C121.65995483 59.30212677 121.65975342 60.41065002 121.6595459 61.55276489 C121.53288126 69.89715843 120.45904616 77.33754677 114.19140625 83.43579102 C108.75959964 86.75087299 103.79760858 88.55338457 97.41183472 88.57623291 C95.97382256 88.58479813 95.97382256 88.58479813 94.50675964 88.59353638 C92.93889458 88.59521317 92.93889458 88.59521317 91.33935547 88.59692383 C90.23317368 88.60188873 89.12699188 88.60685364 87.98728943 88.61196899 C84.32355122 88.62658659 80.65985635 88.63339286 76.99609375 88.63891602 C74.44743855 88.64466888 71.89878336 88.6504266 69.35012817 88.65618896 C64.68548022 88.6653554 60.02084524 88.67165542 55.35619056 88.67468572 C48.51064221 88.67915813 41.66529436 88.69666974 34.81980693 88.72568631 C28.87499057 88.750002 22.93022352 88.7576347 16.98535538 88.75936127 C14.4648848 88.76238095 11.94441493 88.77038625 9.4239769 88.78354645 C5.8891069 88.80068212 2.35471939 88.79870778 -1.18017578 88.79223633 C-2.21327377 88.80145111 -3.24637177 88.81066589 -4.31077576 88.82015991 C-16.72320999 88.74930384 -27.41451863 84.70686321 -36.55859375 76.18579102 C-44.43788333 67.73177678 -49.88955607 56.66813478 -50.30859375 45.06079102 C-49.83177945 31.678203 -44.51600099 20.243236 -34.84765625 11.06469727 C-24.48696302 2.78805153 -12.99217823 -0.01679492 0 0 Z " fill="#FCFCFD" transform="translate(319.80859375,312.564208984375)"/>
<path d="M0 0 C0.66 0 1.32 0 2 0 C1.88366211 0.61069336 1.76732422 1.22138672 1.64746094 1.85058594 C0.34143084 10.17768564 -0.52833456 19.54678941 4.24621582 26.92608643 C11.0558074 35.73535514 19.70373382 43.12597151 28.10498047 50.37231445 C30.44118997 52.49279201 32.25879334 54.39436724 34 57 C37.6237141 56.42264813 39.27481677 55.08429391 41.81884766 52.48999023 C42.55285797 51.74929794 43.28686829 51.00860565 44.04312134 50.24546814 C44.82553192 49.44129959 45.6079425 48.63713104 46.4140625 47.80859375 C47.22491302 46.98875504 48.03576355 46.16891632 48.8711853 45.32423401 C51.46301974 42.70233742 54.04474549 40.07078988 56.625 37.4375 C59.21325747 34.80153382 61.80365007 32.16781586 64.40023804 29.54005432 C66.0168401 27.90357807 67.6284795 26.26218244 69.23477173 24.61558533 C69.96247772 23.8780452 70.69018372 23.14050507 71.43994141 22.38061523 C72.08073639 21.72633041 72.72153137 21.07204559 73.38174438 20.39793396 C75 19 75 19 77 19 C77 46.72 77 74.44 77 103 C28.66201747 106.08540314 28.66201747 106.08540314 18.58203125 97.9375 C13.31070628 93.24304827 9.00897076 87.68180355 5.00634766 81.89453125 C1.2335644 76.45158671 -3.24035813 71.59551628 -8 67 C-11.32738254 63.72420478 -14.41300768 60.30421533 -17.45703125 56.765625 C-19.21796344 54.75058361 -21.06973331 52.85305602 -23 51 C-27.77084392 52.30496613 -30.77201156 54.15050425 -34.5 57.375 C-38.20489588 60.55822951 -41.90245084 63.36069627 -46 66 C-46.17590542 62.33395066 -46.28138031 58.66900008 -46.375 55 C-46.42527344 53.97003906 -46.47554688 52.94007813 -46.52734375 51.87890625 C-46.65104696 45.40510492 -45.91681945 41.61881255 -41.62890625 36.67602539 C-41.09136719 36.12293701 -40.55382812 35.56984863 -40 35 C-39.41420166 34.37625488 -38.82840332 33.75250977 -38.22485352 33.10986328 C-34.73864963 29.46565503 -30.96479369 26.15422019 -27.14453125 22.8671875 C-24.84892571 20.86846355 -22.615204 18.81054771 -20.375 16.75 C-15.06752274 11.94760248 -9.46460105 7.5664462 -3.80859375 3.1875 C-1.83656151 1.67042735 -1.83656151 1.67042735 0 0 Z " fill="#FBFBFC" transform="translate(126,107)"/>
<path d="M0 0 C4.75545682 3.05288586 9.13204599 6.41858784 13.5 10 C14.19488525 10.5667041 14.88977051 11.1334082 15.60571289 11.71728516 C20.86555963 16.02487188 26.03730144 20.42825681 31.17480469 24.88061523 C35.11111182 28.27999726 39.14311781 31.50610018 43.328125 34.59765625 C45.79589065 36.66758118 46.93919464 38.31878386 47.22705078 41.54370117 C47.21657715 42.53345947 47.20610352 43.52321777 47.1953125 44.54296875 C47.18886719 45.61611328 47.18242187 46.68925781 47.17578125 47.79492188 C47.15064453 49.47424805 47.15064453 49.47424805 47.125 51.1875 C47.11597656 52.31865234 47.10695313 53.44980469 47.09765625 54.61523438 C47.07406862 57.41036828 47.041153 60.20507845 47 63 C44.01977752 61.56925574 41.24302445 59.95165066 38.453125 58.1796875 C37.60878906 57.64472656 36.76445312 57.10976562 35.89453125 56.55859375 C35.02183594 56.00300781 34.14914062 55.44742188 33.25 54.875 C31.91775391 54.03001953 31.91775391 54.03001953 30.55859375 53.16796875 C28.37131287 51.78033895 26.1851627 50.39096208 24 49 C23.7306665 49.59151855 23.46133301 50.18303711 23.18383789 50.79248047 C22.00132468 52.99752985 20.77937778 54.51641559 19.05859375 56.3203125 C18.47948242 56.93302002 17.90037109 57.54572754 17.30371094 58.17700195 C16.68786133 58.81984131 16.07201172 59.46268066 15.4375 60.125 C14.15940654 61.4745508 12.88206251 62.82481174 11.60546875 64.17578125 C10.67420166 65.15925537 10.67420166 65.15925537 9.72412109 66.16259766 C7.52301222 68.50832768 5.38248222 70.90436479 3.25 73.3125 C-0.55994716 77.58275676 -4.58161053 81.60069417 -8.65234375 85.62109375 C-11.28054531 88.28427969 -13.73520235 91.05038987 -16.13671875 93.91796875 C-17.05904297 94.94857422 -17.05904297 94.94857422 -18 96 C-18.43561249 96.56447845 -18.87122498 97.12895691 -19.32003784 97.71054077 C-21.7789986 100.59961415 -23.72696898 102.6832079 -27.48170471 103.61756897 C-30.40512964 103.80797784 -33.25598851 103.78837418 -36.18359375 103.68359375 C-37.58841003 103.67301941 -37.58841003 103.67301941 -39.02160645 103.66223145 C-42.49418811 103.62582002 -45.96590918 103.52808913 -49.4375 103.4375 C-61.1009375 103.2209375 -61.1009375 103.2209375 -73 103 C-73 75.28 -73 47.56 -73 19 C-65.125 25.75 -65.125 25.75 -62.26782227 28.61865234 C-61.62768692 29.25886322 -60.98755157 29.8990741 -60.32801819 30.5586853 C-59.66418625 31.22767853 -59.00035431 31.89667175 -58.31640625 32.5859375 C-57.26585304 33.63861313 -57.26585304 33.63861313 -56.19407654 34.71255493 C-53.98116973 36.93101136 -51.77178584 39.15293815 -49.5625 41.375 C-48.05296686 42.88955466 -46.54320343 44.40387985 -45.03320312 45.91796875 C-41.35280298 49.60933099 -37.67528043 53.30354069 -34 57 C-30.70184188 55.43388545 -28.50279528 53.7486877 -25.91796875 51.1484375 C-25.15033203 50.37886719 -24.38269531 49.60929687 -23.59179688 48.81640625 C-22.79837891 48.01074219 -22.00496094 47.20507812 -21.1875 46.375 C-20.40568359 45.59253906 -19.62386719 44.81007812 -18.81835938 44.00390625 C-14.54995609 39.7034097 -10.43576628 35.32185618 -6.5012207 30.71337891 C-5 29 -5 29 -3.35107422 27.64868164 C-1.35686625 25.21520018 -1.46663705 23.12773808 -1.26953125 20.01953125 C-1.18896484 18.85615234 -1.10839844 17.69277344 -1.02539062 16.49414062 C-0.92000977 14.67172852 -0.92000977 14.67172852 -0.8125 12.8125 C-0.73064453 11.58595703 -0.64878906 10.35941406 -0.56445312 9.09570312 C-0.36393762 6.06438043 -0.17631517 3.03281086 0 0 Z " fill="#FBFCFC" transform="translate(354,107)"/>
<path d="M0 0 C19.8 0 39.6 0 60 0 C60 18.48 60 36.96 60 56 C53.26525883 53.97957765 47.95549332 52.29541393 42.0625 48.875 C41.37865234 48.48320557 40.69480469 48.09141113 39.99023438 47.68774414 C33.80592753 44.05192337 28.30355965 39.83483261 23 35 C22.28457031 34.35417969 21.56914062 33.70835937 20.83203125 33.04296875 C11.93568751 24.59402334 5.0662622 14.14577685 0 3 C0 2.01 0 1.02 0 0 Z " fill="#FBFCFC" transform="translate(143,226)"/>
<path d="M0 0 C7.2646767 4.26577065 12.30827267 9.69434926 14.9921875 17.74609375 C15.85517701 25.95682255 15.17605336 32.16506505 9.9921875 38.74609375 C4.16986227 45.05246027 -1.79936789 47.85164578 -10.3203125 48.37109375 C-17.53123802 48.21325091 -21.80010779 45.5516591 -27.0078125 40.74609375 C-29.4453125 38.18359375 -29.4453125 38.18359375 -31.0078125 35.74609375 C-31.8740625 34.44671875 -31.8740625 34.44671875 -32.7578125 33.12109375 C-35.51219099 25.68427182 -34.62355737 18.1985797 -31.40234375 11.0390625 C-24.92630302 0.39078264 -11.72228706 -4.88682357 0 0 Z " fill="#090F10" transform="translate(327.0078125,334.25390625)"/>
<path d="M0 0 C17.16 0 34.32 0 52 0 C47.66770628 12.99688115 40.11084124 23.00701982 31 33 C30.10861328 34.01513672 30.10861328 34.01513672 29.19921875 35.05078125 C22.18062544 42.62668222 12.46458794 48.96878662 3 53 C2.01 53 1.02 53 0 53 C0 35.51 0 18.02 0 0 Z " fill="#F9F9F9" transform="translate(281,225)"/>
<path d="M0 0 C-1.39750048 3.15835107 -3.05198234 5.32272825 -5.5 7.75 C-6.41265625 8.67039063 -6.41265625 8.67039063 -7.34375 9.609375 C-9 11 -9 11 -11 11 C-9.60249952 7.84164893 -7.94801766 5.67727175 -5.5 3.25 C-4.8915625 2.63640625 -4.283125 2.0228125 -3.65625 1.390625 C-2 0 -2 0 0 0 Z " fill="#0D1111" transform="translate(340,200)"/>
<path d="M0 0 C0.66 0.33 1.32 0.66 2 1 C0.78070272 2.30098717 -0.45092452 3.59042437 -1.6875 4.875 C-2.37199219 5.59429687 -3.05648437 6.31359375 -3.76171875 7.0546875 C-6.09591291 9.08335887 -8.08467634 10.02992733 -11 11 C-7.81316569 6.66590534 -4.13621084 3.3810038 0 0 Z " fill="#CED2D2" transform="translate(111,119)"/>
<path d="M0 0 C0.66 0.33 1.32 0.66 2 1 C0.88266271 2.50571657 -0.24410035 4.00444292 -1.375 5.5 C-2.00148438 6.3353125 -2.62796875 7.170625 -3.2734375 8.03125 C-3.84320313 8.6809375 -4.41296875 9.330625 -5 10 C-5.66 10 -6.32 10 -7 10 C-5.33248852 6.05860922 -2.77289351 3.2107188 0 0 Z " fill="#323537" transform="translate(378,156)"/>
<path d="M0 0 C0.66 0.33 1.32 0.66 2 1 C-0.19924069 4.35673579 -2.38269598 6.23772368 -6 8 C-6.66 7.67 -7.32 7.34 -8 7 C-5.36 4.69 -2.72 2.38 0 0 Z " fill="#212324" transform="translate(94,161)"/>
</svg>
